
<svg xmlns="http://www.w3.org/2000/svg" version="1.1" width="376px" height="510px" style="shape-rendering:geometricPrecision; text-rendering:geometricPrecision; image-rendering:optimizeQuality; fill-rule:evenodd; clip-rule:evenodd" xmlns:xlink="http://www.w3.org/1999/xlink">
<g><path style="opacity:1" fill="#00b97c" d="M 119.5,-0.5 C 122.5,-0.5 125.5,-0.5 128.5,-0.5C 139.641,4.46376 143.141,12.7971 139,24.5C 137.859,26.6089 136.359,28.4422 134.5,30C 73.3179,62.8825 39.8179,114.049 34,183.5C 33.7466,263.174 68.9133,321.007 139.5,357C 193.07,379.866 246.07,378.532 298.5,353C 315.691,352.533 322.191,360.7 318,377.5C 316.859,379.609 315.359,381.442 313.5,383C 287.679,396.122 260.346,403.955 231.5,406.5C 231.5,429.167 231.5,451.833 231.5,474.5C 274.168,474.333 316.835,474.5 359.5,475C 367.778,476.118 373.112,480.618 375.5,488.5C 375.5,490.833 375.5,493.167 375.5,495.5C 373.06,502.941 368.06,507.607 360.5,509.5C 262.833,509.5 165.167,509.5 67.5,509.5C 54.4527,504.543 50.6193,495.543 56,482.5C 58.2643,479.567 61.0976,477.4 64.5,476C 108.786,474.521 153.119,474.021 197.5,474.5C 197.5,451.833 197.5,429.167 197.5,406.5C 115.298,397.411 55.7983,356.078 19,282.5C 8.10686,258.168 1.60686,232.835 -0.5,206.5C -0.5,196.833 -0.5,187.167 -0.5,177.5C 8.26658,96.7952 48.2666,37.4619 119.5,-0.5 Z"/></g>
<g><path style="opacity:1" fill="#00b97c" d="M 204.5,40.5 C 265.408,39.0314 312.241,63.6981 345,114.5C 365.695,150.67 371.195,189.004 361.5,229.5C 361.267,230.932 360.6,231.432 359.5,231C 357.724,227.559 355.557,224.392 353,221.5C 352.107,220.289 351.274,220.289 350.5,221.5C 358.823,265.105 366.823,308.772 374.5,352.5C 331.532,344.539 288.532,337.039 245.5,330C 248.833,332.667 252.167,335.333 255.5,338C 191.492,353.33 137.992,336.163 95,286.5C 60.8686,239.695 53.8686,189.029 74,134.5C 99.5521,78.3025 143.052,46.9692 204.5,40.5 Z M 127.5,164.5 C 147.05,163.773 158.05,173.106 160.5,192.5C 156.326,214.583 143.326,223.083 121.5,218C 107.52,210.534 102.353,199.034 106,183.5C 109.948,173.377 117.115,167.044 127.5,164.5 Z M 209.5,164.5 C 233.414,164.908 243.914,176.908 241,200.5C 233.654,217.285 221.154,223.119 203.5,218C 189.526,210.546 184.359,199.046 188,183.5C 191.973,173.35 199.14,167.016 209.5,164.5 Z M 291.5,164.5 C 315.412,164.906 325.912,176.906 323,200.5C 315.689,217.277 303.189,223.11 285.5,218C 270.678,209.876 265.844,197.709 271,181.5C 275.262,172.634 282.095,166.967 291.5,164.5 Z"/></g>
</svg>
